<?xml version="1.0" encoding="UTF-8"?>
<svg xmlns="http://www.w3.org/2000/svg" xmlns:xlink="http://www.w3.org/1999/xlink" viewBox="0 0 1000 500">
  <defs>
    <style>
      .cls-1 {
        fill: url(#linear-gradient);
      }

      .cls-1, .cls-2 {
        stroke-width: 0px;
      }

      .cls-3 {
        isolation: isolate;
      }

      .cls-4 {
        mix-blend-mode: multiply;
        opacity: .35;
      }

      .cls-2 {
        fill: #26724e;
      }
    </style>
    <linearGradient id="linear-gradient" x1="225.16" y1="298.52" x2="319.25" y2="298.52" gradientUnits="userSpaceOnUse">
      <stop offset="0" stop-color="#4a4a4a"/>
      <stop offset=".2" stop-color="#888"/>
      <stop offset=".39" stop-color="#bbb"/>
      <stop offset=".56" stop-color="#e0e0e0"/>
      <stop offset=".69" stop-color="#f6f6f6"/>
      <stop offset=".78" stop-color="#fff"/>
    </linearGradient>
  </defs>
  <g class="cls-3">
    <g id="Layer_1" data-name="Layer 1">
      <g>
        <g>
          <path class="cls-2" d="M682.07,179.57c-56.59,0-100.07,45.72-100.07,105.31s40.1,100.82,99.69,100.82c42.35,0,67.46-15.74,89.95-48.35l-34.86-23.61c-12.74,18.74-25.86,29.23-51.35,29.23-28.11,0-45.72-20.24-49.47-47.22h138.67c1.5-7.87,2.62-17.24,2.62-25.11,0-52.47-40.48-91.07-95.2-91.07ZM638.6,259.4c5.62-22.11,19.49-38.23,44.97-38.23,21.74,0,38.23,14.62,39.35,38.23h-84.33Z"/>
          <path class="cls-2" d="M475.83,179.57c-19.1,0-43.82,6.74-58.07,25.08v-82.88h-53.25v259.48h53.25v-19.49c14.75,17.83,38.62,23.94,57.69,23.94,53.22,0,92.2-46.85,92.2-102.32s-39.35-103.81-91.82-103.81ZM463.47,339.98c-16.86,0-32.59-5.62-45.7-21.34v-67.15c11.62-19.46,29.6-26.2,46.45-26.2,30.73,0,49.1,27.36,49.1,56.59s-15.74,58.09-49.85,58.09Z"/>
          <path class="cls-2" d="M902.22,334.73c-6.75,3.37-13.12,5.62-21.36,5.62-11.24,0-15.74-7.12-17.24-18.74-.66-4.98-.74-9.7-.74-14.87v-78.45h50.22v-44.22h-50.22v-62.31h-53.25v62.31h-23.59v44.22h23.59v85.17h.05c.13,10.57.99,21.01,3.72,29.88,7.12,25.49,27.73,42.35,58.47,42.35,15.37,0,34.11-4.12,46.85-11.62l-16.49-39.35Z"/>
          <path class="cls-2" d="M199.84,119.54c-72.82,7.87-125.66,73.66-117.77,146.68,7.89,73.01,73.55,126.01,146.37,118.15,20.09-2.17,38.64-8.75,54.83-18.67l-38.14-38.14c-6.94,2.87-14.38,4.83-22.22,5.68-44.63,4.82-84.87-27.72-89.71-72.53-4.84-44.81,27.53-85.2,72.16-90.02,44.63-4.82,84.87,27.72,89.71,72.53,1.42,13.12-.36,25.85-4.7,37.42l-65.2-65.2v72.09l94.09,94.09.03-48.41c20.19-26.26,30.75-60.02,26.92-95.51-7.89-73.01-73.55-126.01-146.37-118.15Z"/>
        </g>
        <g class="cls-4">
          <polygon class="cls-1" points="225.16 215.43 225.16 287.52 319.25 381.61 225.16 215.43"/>
        </g>
      </g>
    </g>
  </g>
</svg>